<svg xmlns="http://www.w3.org/2000/svg" viewBox="0 0 128 128" role="img" aria-label="ContaS logo">
  <defs>
    <linearGradient id="g1" x1="0" y1="0" x2="1" y2="1">
      <stop offset="0%" stop-color="#00a0c0"/>
      <stop offset="100%" stop-color="#0f7a8c"/>
    </linearGradient>
    <linearGradient id="g2" x1="1" y1="0" x2="0" y2="1">
      <stop offset="0%" stop-color="#7f6cff"/>
      <stop offset="100%" stop-color="#5b4ac7"/>
    </linearGradient>
  </defs>
  <rect x="8" y="8" width="112" height="112" rx="28" fill="#f8fbff" stroke="#d4e4ee"/>
  <path d="M30 82c0-20 14-34 34-34h10v14h-9c-13 0-21 8-21 20s8 20 21 20h23v14H65C44 116 30 102 30 82z" fill="url(#g1)"/>
  <path d="M98 46c0 20-14 34-34 34H54V66h10c13 0 21-8 21-20s-8-20-21-20H41V12h23c21 0 34 14 34 34z" fill="url(#g2)"/>
</svg>
